<svg xmlns="http://www.w3.org/2000/svg" viewBox="0 0 240 240" role="img" aria-labelledby="title">
  <title id="title">WhatsApp logo</title>
  <circle cx="120" cy="120" r="112" fill="#25d366"/>
  <path fill="#fff" d="M178.9 61.1A81.9 81.9 0 0 0 49.6 158L38 200.4l43.4-11.4a81.8 81.8 0 0 0 39.1 10h.1a81.9 81.9 0 0 0 58.3-137.9Zm-58.3 124a68 68 0 0 1-34.7-9.5l-2.5-1.5-25.8 6.8 6.9-25.1-1.6-2.6a67.9 67.9 0 1 1 57.7 31.9Zm37.2-50.8c-2-1-12.1-6-14-6.7-1.9-.7-3.3-1-4.7 1s-5.4 6.7-6.6 8.1-2.4 1.5-4.4.5a55.7 55.7 0 0 1-16.4-10.1 61.2 61.2 0 0 1-11.3-14.1c-1.2-2 0-3.1.9-4.1.9-.9 2-2.4 3.1-3.6 1-1.2 1.4-2 2-3.4.7-1.4.3-2.6-.2-3.6-.5-1-4.7-11.3-6.4-15.5-1.7-4-3.4-3.5-4.7-3.6h-4c-1.4 0-3.6.5-5.5 2.6-1.9 2-7.2 7-7.2 17.2s7.4 19.9 8.4 21.3c1 1.4 14.5 22.1 35.1 31 4.9 2.1 8.7 3.4 11.7 4.3 4.9 1.6 9.4 1.3 12.9.8 3.9-.6 12.1-4.9 13.8-9.7 1.7-4.8 1.7-8.9 1.2-9.7-.5-.9-1.9-1.4-3.9-2.4Z"/>
</svg>
